<?xml version="1.0" encoding="UTF-8" standalone="no"?>
<!DOCTYPE svg PUBLIC "-//W3C//DTD SVG 1.1//EN" "http://www.w3.org/Graphics/SVG/1.1/DTD/svg11.dtd">
<!-- Created with Vectornator (http://vectornator.io/) -->
<svg height="100%" stroke-miterlimit="10" style="fill-rule:nonzero;clip-rule:evenodd;stroke-linecap:round;stroke-linejoin:round;" version="1.1" viewBox="0 0 841.995 595.35" width="100%" xml:space="preserve" xmlns="http://www.w3.org/2000/svg" xmlns:xlink="http://www.w3.org/1999/xlink">
<defs/>
<g id="レイヤー-1">
<g fill="#3395ff" opacity="1" stroke="none"/>
<path d="M322.375 57.1562C315.757 57.1562 310.023 61.2193 304.969 66.4375C299.914 71.6557 295.541 78.0289 291.625 82.6562C288.305 86.5801 285.382 90.846 282.656 95.1875C279.93 99.529 277.401 103.946 274.875 108.156C274.246 109.205 254.622 158.001 253.969 163.938C253.316 169.874 252.335 197.919 252.875 204.781C253.415 211.644 256.244 226.768 256.719 227.656C257.194 228.544 262.715 240.548 266.875 244.812C271.035 249.077 285.334 256.293 287.625 256.594C289.916 256.894 292.099 257.263 293.531 258.469C291.95 263.065 291.837 268.127 293.188 272.75C294.538 277.373 297.352 281.558 301.625 284.406C303.734 285.812 305.966 286.781 308.25 287.625C310.534 288.469 312.868 289.189 315.125 290.156C316.045 290.551 317.336 290.584 318.594 290.688C319.852 290.791 321.077 290.965 321.875 291.656C327.141 296.22 332.588 300.776 338.281 304.844C343.974 308.912 341.316 309.055 347.531 311.719C348.921 312.314 359.854 315.705 361.594 316.031C363.334 316.357 369.317 317.177 369.312 317.188C369.308 317.198 373.43 320.471 373.438 321.188C373.445 321.904 377.465 366.983 378.219 370.656C378.973 374.33 388.641 439.123 388.625 440.344C388.609 441.565 387.833 458.518 386.125 459.656C379.291 464.212 370.484 469.535 362.875 475.875C355.266 482.215 348.856 489.573 346.875 498.156C345.01 506.237 346.192 513.826 349.781 519.812C353.371 525.799 359.366 530.182 367.125 531.906C369.262 532.381 371.899 532.848 374.531 533C377.163 533.152 379.79 532.99 381.875 532.156C384.332 531.173 386.569 529.964 388.688 528.5C390.806 527.036 392.804 525.316 394.812 523.375C394.873 523.421 394.921 523.484 394.969 523.531C395.017 523.579 395.064 523.611 395.125 523.656C402.467 529.162 412.838 531.741 423.219 531.562C424.801 531.535 426.376 531.403 427.938 531.219C429.489 531.4 431.053 531.535 432.625 531.562C443.005 531.741 453.378 529.162 460.719 523.656C460.78 523.611 460.827 523.579 460.875 523.531C460.923 523.484 460.971 523.421 461.031 523.375C463.039 525.316 465.038 527.036 467.156 528.5C469.274 529.964 471.512 531.173 473.969 532.156C476.054 532.99 478.681 533.152 481.312 533C483.945 532.848 486.582 532.381 488.719 531.906C496.477 530.182 502.473 525.799 506.062 519.812C509.652 513.826 510.834 506.237 508.969 498.156C506.988 489.573 500.578 482.215 492.969 475.875C485.36 469.535 476.552 464.212 469.719 459.656C468.011 458.518 467.235 441.565 467.219 440.344C467.202 439.123 476.871 374.33 477.625 370.656C478.379 366.983 482.399 321.904 482.406 321.188C482.414 320.471 486.536 317.198 486.531 317.188C486.527 317.177 492.51 316.357 494.25 316.031C495.99 315.705 506.923 312.314 508.312 311.719C514.527 309.055 511.87 308.912 517.562 304.844C523.255 300.776 528.703 296.22 533.969 291.656C534.766 290.965 535.992 290.791 537.25 290.688C538.508 290.584 539.798 290.551 540.719 290.156C542.976 289.189 545.31 288.469 547.594 287.625C549.877 286.781 552.11 285.812 554.219 284.406C558.491 281.558 561.306 277.373 562.656 272.75C564.007 268.127 563.894 263.065 562.312 258.469C563.745 257.263 565.928 256.894 568.219 256.594C570.51 256.293 584.809 249.077 588.969 244.812C593.129 240.548 598.65 228.544 599.125 227.656C599.6 226.768 602.429 211.644 602.969 204.781C603.509 197.919 602.528 169.874 601.875 163.938C601.222 158.001 581.598 109.205 580.969 108.156C578.443 103.946 575.913 99.529 573.188 95.1875C570.462 90.846 567.539 86.5801 564.219 82.6562C560.303 78.0289 555.929 71.6557 550.875 66.4375C545.821 61.2193 540.087 57.1562 533.469 57.1562C529.467 57.1562 526.945 59.9721 525.844 63.4688C524.742 66.9654 527.596 75.8235 527.875 76.8438C528.154 77.864 530.46 84.4365 531.531 86.75C532.602 89.0635 533.745 91.3833 534.719 93.6562C537.95 101.195 541.084 108.573 543.75 116.094C546.416 123.615 548.614 131.28 549.969 139.406C550.235 141.002 551.347 164.742 551.469 167.906C551.47 167.95 551.493 167.972 551.531 168C551.569 168.028 551.623 168.064 551.656 168.094C551.289 168.561 548.889 168.618 547.938 168.562C546.986 168.507 542.239 149.071 539.906 140.938C537.574 132.804 534.389 124.996 530.969 118.156C529.879 115.976 527.906 112.794 525.406 110.688C522.906 108.581 519.878 107.55 516.719 109.656C514.225 111.319 512.886 113.464 512.156 115.906C511.426 118.348 511.304 121.087 511.219 123.906C511.075 128.653 511.062 133.3 511.188 137.938C511.313 142.575 511.577 147.204 511.969 151.906C512.624 159.77 513.921 167.505 515.25 175.219C516.579 182.932 517.941 190.625 518.719 198.406C519.096 202.181 519.621 206.338 520.406 210.406C521.192 214.475 522.239 218.454 523.719 221.906C524.968 224.82 526.258 227.866 527.688 230.844C529.117 233.821 530.685 236.73 532.469 239.406C533.206 240.513 536.869 244.707 537.469 245.906C537.04 246.335 527.735 250.64 526.969 251.406C525.719 252.656 524.401 254.452 523.281 256.312C522.161 258.173 521.238 260.098 520.719 261.656C520.523 262.244 519.643 265.388 519.219 265.906C516.955 268.673 513.02 271.399 508.875 273.812C504.73 276.226 500.376 278.328 497.219 279.906C496.279 280.376 492.814 282.472 489.438 284.406C486.061 286.34 482.771 288.113 482.219 287.906C481.037 287.463 480.066 285.206 479.219 282.719C478.371 280.231 477.647 277.513 476.969 276.156C474.032 270.283 471.332 264.531 468.219 258.906C465.105 253.281 461.577 247.783 456.969 242.406C455.272 240.426 453.6 238.641 452.469 236.656C451.338 234.671 452.384 217.657 452.344 212.156C452.303 206.656 453.133 132.421 453.25 126.531C453.367 120.642 453.593 114.785 454.219 109.156C454.538 106.283 455.054 103.34 455.375 100.438C456.916 86.5088 466.473 85.6597 468.625 85.4375C470.777 85.2153 472.994 85.3506 474.719 85.4062C478.365 85.5239 480.859 90.0048 482.438 95.0312C484.016 100.058 484.681 105.63 484.719 107.906C484.747 109.615 484.774 111.323 484.812 113.031C484.851 114.74 483.927 125.828 490.781 125.688C497.992 125.54 497.456 120.032 497.594 118C497.732 115.968 497.328 94.4745 495.75 89.5625C494.172 84.6505 491.657 80.0943 487.969 76.4062C485.34 73.7773 481.11 72.6553 476.75 72.1875C472.39 71.7197 467.9 71.9063 464.719 71.9062C460.444 71.9062 456.122 74.1565 452.531 77.3125C448.94 80.4685 446.079 84.5302 444.719 88.1562C443.342 91.8277 442.612 95.7638 442.062 99.75C441.513 103.736 438.325 152.573 438.375 165.656C438.425 178.74 438.505 191.823 438.469 204.906C438.463 206.99 438.469 209.072 438.438 211.156C438.406 213.24 438.339 215.326 438.219 217.406C438.212 217.524 438.134 217.613 438.031 217.688C437.929 217.762 437.802 217.823 437.719 217.906C436.264 216.451 434.846 214.196 433.312 212.156C431.975 210.377 430.517 208.9 428.906 208.094C428.81 208.027 428.716 207.958 428.625 207.906C428.485 207.846 428.362 207.704 428.219 207.656C428.143 207.631 428.022 207.718 427.938 207.719C427.843 207.715 427.709 207.628 427.625 207.656C427.482 207.704 427.359 207.846 427.219 207.906C427.128 207.958 427.033 208.027 426.938 208.094C425.327 208.9 423.869 210.377 422.531 212.156C420.998 214.196 419.58 216.451 418.125 217.906C418.042 217.823 417.915 217.762 417.812 217.688C417.71 217.613 417.632 217.524 417.625 217.406C417.505 215.326 417.437 213.24 417.406 211.156C417.375 209.072 417.381 206.99 417.375 204.906C417.339 191.823 417.419 178.74 417.469 165.656C417.519 152.573 414.331 103.736 413.781 99.75C413.232 95.7638 412.502 91.8277 411.125 88.1562C409.765 84.5302 406.904 80.4685 403.312 77.3125C399.721 74.1565 395.401 71.9062 391.125 71.9062C387.944 71.9063 383.454 71.7197 379.094 72.1875C374.733 72.6553 370.504 73.7773 367.875 76.4062C364.187 80.0943 361.672 84.6505 360.094 89.5625C358.516 94.4745 358.112 115.968 358.25 118C358.388 120.032 357.851 125.54 365.062 125.688C371.917 125.828 370.993 114.74 371.031 113.031C371.07 111.323 371.097 109.615 371.125 107.906C371.163 105.63 371.827 100.058 373.406 95.0312C374.985 90.0048 377.478 85.5239 381.125 85.4062C382.85 85.3506 385.066 85.2153 387.219 85.4375C389.371 85.6597 398.927 86.5088 400.469 100.438C400.79 103.34 401.306 106.283 401.625 109.156C402.251 114.785 402.476 120.642 402.594 126.531C402.711 132.421 403.54 206.656 403.5 212.156C403.46 217.657 404.506 234.671 403.375 236.656C402.244 238.641 400.572 240.426 398.875 242.406C394.266 247.783 390.739 253.281 387.625 258.906C384.511 264.531 381.812 270.283 378.875 276.156C378.197 277.513 377.473 280.231 376.625 282.719C375.777 285.206 374.807 287.463 373.625 287.906C373.073 288.113 369.783 286.34 366.406 284.406C363.029 282.472 359.565 280.376 358.625 279.906C355.468 278.328 351.114 276.226 346.969 273.812C342.824 271.399 338.889 268.673 336.625 265.906C336.201 265.388 335.321 262.244 335.125 261.656C334.605 260.098 333.683 258.173 332.562 256.312C331.442 254.452 330.125 252.656 328.875 251.406C328.109 250.64 318.804 246.335 318.375 245.906C318.975 244.707 322.637 240.513 323.375 239.406C325.159 236.73 326.727 233.821 328.156 230.844C329.586 227.866 330.876 224.82 332.125 221.906C333.605 218.454 334.652 214.475 335.438 210.406C336.223 206.338 336.748 202.181 337.125 198.406C337.903 190.625 339.265 182.932 340.594 175.219C341.923 167.505 343.22 159.77 343.875 151.906C344.267 147.204 344.531 142.575 344.656 137.938C344.782 133.3 344.769 128.653 344.625 123.906C344.54 121.087 344.418 118.348 343.688 115.906C342.957 113.464 341.619 111.319 339.125 109.656C335.965 107.55 332.938 108.581 330.438 110.688C327.937 112.794 325.965 115.976 324.875 118.156C321.455 124.996 318.27 132.804 315.938 140.938C313.605 149.071 308.858 168.507 307.906 168.562C306.955 168.618 304.554 168.561 304.188 168.094C304.221 168.064 304.274 168.028 304.312 168C304.351 167.972 304.373 167.95 304.375 167.906C304.497 164.742 305.609 141.002 305.875 139.406C307.229 131.28 309.427 123.615 312.094 116.094C314.76 108.573 317.894 101.195 321.125 93.6562C322.099 91.3833 323.241 89.0635 324.312 86.75C325.384 84.4365 327.69 77.864 327.969 76.8438C328.247 75.8235 331.102 66.9654 330 63.4688C328.898 59.9721 326.377 57.1562 322.375 57.1562Z" fill="#000000" fill-rule="nonzero" opacity="1" stroke="none"/>
</g>
</svg>
