<?xml version="1.0" encoding="UTF-8" standalone="no"?>
<!DOCTYPE svg PUBLIC "-//W3C//DTD SVG 1.1//EN" "http://www.w3.org/Graphics/SVG/1.1/DTD/svg11.dtd">
<!-- Created with Vectornator (http://vectornator.io/) -->
<svg height="100%" stroke-miterlimit="10" style="fill-rule:nonzero;clip-rule:evenodd;stroke-linecap:round;stroke-linejoin:round;" version="1.1" viewBox="0 0 595.35 805.14" width="100%" xml:space="preserve" xmlns="http://www.w3.org/2000/svg" xmlns:xlink="http://www.w3.org/1999/xlink">
<defs/>
<g id="レイヤー-1">
<g fill="#3395ff" opacity="1" stroke="none"/>
<path d="M121.504 4.62831C110.416 4.62831 100.811 11.4352 92.3436 20.1771C83.8759 28.919 76.549 39.596 69.989 47.3482C64.4262 53.9218 59.5307 61.0684 54.9637 68.3416C50.3966 75.6149 46.1601 83.0148 41.9279 90.0681C40.8733 91.8255 7.9975 173.572 6.90387 183.518C5.81042 193.463 4.16686 240.446 5.07152 251.943C5.97616 263.44 10.7157 288.778 11.5109 290.265C12.3063 291.753 21.5561 311.863 28.5256 319.007C35.4949 326.15 59.4494 338.24 63.2878 338.744C67.1264 339.247 70.7831 339.866 73.1825 341.885C70.5328 349.584 70.3437 358.065 72.6066 365.81C74.8696 373.556 79.5837 380.566 86.7419 385.338C90.2748 387.693 94.0147 389.316 97.8407 390.73C101.667 392.144 105.577 393.35 109.358 394.971C110.9 395.632 113.062 395.687 115.169 395.861C117.277 396.034 119.33 396.326 120.666 397.484C129.489 405.129 138.614 412.761 148.152 419.576C157.689 426.392 153.237 426.632 163.648 431.094C165.976 432.092 184.292 437.772 187.207 438.319C190.122 438.865 200.146 440.238 200.138 440.256C200.13 440.274 207.036 445.756 207.049 446.957C207.061 448.158 213.796 523.677 215.059 529.831C216.321 535.985 232.519 644.532 232.492 646.578C232.465 648.624 231.165 677.025 228.304 678.932C216.855 686.564 202.101 695.482 189.353 706.103C176.605 716.725 165.867 729.051 162.549 743.431C159.424 756.969 161.404 769.683 167.418 779.711C173.431 789.74 183.475 797.083 196.473 799.972C200.053 800.767 204.471 801.549 208.881 801.804C213.291 802.059 217.691 801.788 221.184 800.391C225.3 798.744 229.048 796.719 232.597 794.265C236.145 791.812 239.493 788.932 242.858 785.679C242.959 785.756 243.039 785.862 243.12 785.941C243.2 786.021 243.279 786.074 243.381 786.151C255.681 795.374 273.055 799.696 290.447 799.396C293.097 799.35 295.736 799.128 298.352 798.82C300.951 799.125 303.572 799.351 306.205 799.396C323.595 799.696 340.972 795.374 353.27 786.151C353.372 786.074 353.452 786.021 353.532 785.941C353.612 785.862 353.693 785.756 353.793 785.679C357.158 788.932 360.506 791.812 364.055 794.265C367.603 796.719 371.352 798.744 375.467 800.391C378.961 801.788 383.361 802.059 387.77 801.804C392.18 801.549 396.598 800.767 400.178 799.972C413.176 797.083 423.221 789.74 429.234 779.711C435.247 769.683 437.227 756.969 434.103 743.431C430.784 729.051 420.045 716.725 407.298 706.103C394.551 695.482 379.795 686.564 368.347 678.932C365.487 677.025 364.187 648.624 364.159 646.578C364.132 644.532 380.33 535.985 381.593 529.831C382.856 523.677 389.59 448.158 389.603 446.957C389.615 445.756 396.521 440.274 396.513 440.256C396.506 440.238 406.53 438.865 409.444 438.319C412.359 437.772 430.675 432.092 433.003 431.094C443.414 426.632 438.963 426.392 448.5 419.576C458.036 412.761 467.163 405.129 475.985 397.484C477.321 396.326 479.374 396.034 481.482 395.861C483.589 395.687 485.751 395.632 487.293 394.971C491.074 393.35 494.985 392.144 498.811 390.73C502.636 389.316 506.377 387.693 509.909 385.338C517.067 380.566 521.782 373.556 524.045 365.81C526.307 358.065 526.118 349.584 523.469 341.885C525.868 339.866 529.525 339.247 533.363 338.744C537.202 338.24 561.157 326.15 568.126 319.007C575.095 311.863 584.345 291.753 585.14 290.265C585.936 288.778 590.675 263.44 591.58 251.943C592.484 240.446 590.841 193.463 589.747 183.518C588.654 173.572 555.778 91.8255 554.723 90.0681C550.491 83.0148 546.254 75.6149 541.688 68.3416C537.121 61.0684 532.225 53.9218 526.662 47.3482C520.103 39.596 512.775 28.919 504.308 20.1771C495.84 11.4352 486.234 4.62831 475.147 4.62831C468.443 4.62831 464.219 9.34561 462.373 15.2036C460.528 21.0616 465.309 35.9014 465.776 37.6106C466.243 39.3198 470.107 50.3307 471.901 54.2064C473.696 58.0821 475.609 61.9684 477.241 65.7764C482.654 78.4066 487.904 90.7655 492.371 103.366C496.838 115.966 500.521 128.807 502.789 142.421C503.235 145.094 505.099 184.865 505.302 190.167C505.305 190.241 505.343 190.276 505.407 190.324C505.471 190.371 505.56 190.43 505.616 190.481C505.002 191.263 500.98 191.359 499.387 191.266C497.793 191.173 489.84 158.611 485.932 144.986C482.024 131.361 476.688 118.28 470.959 106.821C469.133 103.169 465.829 97.8378 461.64 94.3086C457.452 90.7795 452.379 89.0522 447.086 92.581C442.908 95.3667 440.666 98.9606 439.443 103.052C438.219 107.142 438.015 111.73 437.872 116.454C437.631 124.406 437.609 132.191 437.82 139.96C438.03 147.73 438.472 155.484 439.128 163.362C440.226 176.537 442.399 189.494 444.625 202.417C446.852 215.34 449.133 228.227 450.437 241.263C451.069 247.586 451.947 254.551 453.264 261.366C454.58 268.182 456.334 274.848 458.813 280.632C460.905 285.514 463.068 290.617 465.462 295.605C467.856 300.593 470.483 305.467 473.472 309.95C474.708 311.804 480.843 318.829 481.848 320.839C481.13 321.558 465.541 328.77 464.258 330.053C462.164 332.147 459.957 335.156 458.08 338.273C456.203 341.389 454.658 344.614 453.787 347.225C453.459 348.209 451.985 353.476 451.274 354.345C447.481 358.981 440.889 363.547 433.946 367.59C427.002 371.634 419.707 375.155 414.418 377.799C412.843 378.586 407.039 382.097 401.382 385.338C395.725 388.578 390.213 391.548 389.289 391.201C387.309 390.459 385.682 386.678 384.263 382.511C382.843 378.343 381.63 373.79 380.493 371.517C375.574 361.678 371.051 352.042 365.835 342.618C360.618 333.194 354.708 323.983 346.988 314.976C344.145 311.659 341.344 308.668 339.449 305.343C337.554 302.017 339.307 273.513 339.239 264.298C339.172 255.083 340.561 130.718 340.758 120.851C340.954 110.985 341.333 101.174 342.381 91.7433C342.915 86.9301 343.78 81.9988 344.318 77.1369C346.899 53.8023 362.91 52.3798 366.515 52.0076C370.121 51.6354 373.835 51.8621 376.724 51.9552C382.833 52.1523 387.01 59.6591 389.655 68.0799C392.3 76.5007 393.413 85.8355 393.477 89.6492C393.525 92.5116 393.57 95.3729 393.634 98.2351C393.698 101.097 392.151 119.673 403.633 119.438C415.714 119.191 414.815 109.963 415.046 106.559C415.277 103.155 414.601 67.1471 411.957 58.9181C409.314 50.6892 405.1 43.0562 398.922 36.8776C394.517 32.4735 387.431 30.5937 380.127 29.81C372.822 29.0263 365.3 29.3388 359.971 29.3388C352.809 29.3388 345.57 33.1087 339.553 38.3959C333.537 43.6831 328.743 50.4876 326.465 56.5623C324.159 62.713 322.936 69.3071 322.015 75.9852C321.095 82.6632 315.754 164.478 315.838 186.397C315.922 208.316 316.055 230.234 315.995 252.152C315.985 255.643 315.994 259.132 315.942 262.623C315.89 266.114 315.777 269.608 315.576 273.093C315.565 273.29 315.433 273.439 315.262 273.565C315.09 273.69 314.878 273.791 314.738 273.931C312.3 271.493 309.926 267.715 307.356 264.298C305.115 261.318 302.673 258.843 299.975 257.492C299.814 257.381 299.656 257.264 299.504 257.178C299.269 257.077 299.062 256.839 298.823 256.759C298.696 256.717 298.494 256.863 298.352 256.864C298.193 256.858 297.968 256.713 297.828 256.759C297.589 256.839 297.382 257.077 297.148 257.178C296.996 257.264 296.837 257.381 296.677 257.492C293.979 258.843 291.536 261.318 289.295 264.298C286.725 267.715 284.351 271.493 281.913 273.931C281.774 273.791 281.561 273.69 281.39 273.565C281.218 273.439 281.087 273.29 281.075 273.093C280.874 269.608 280.761 266.114 280.709 262.623C280.657 259.132 280.666 255.643 280.657 252.152C280.597 230.234 280.73 208.316 280.814 186.397C280.898 164.478 275.557 82.6632 274.636 75.9852C273.715 69.3071 272.493 62.713 270.186 56.5623C267.908 50.4876 263.115 43.6831 257.098 38.3959C251.081 33.1087 243.843 29.3388 236.68 29.3388C231.351 29.3388 223.829 29.0263 216.524 29.81C209.22 30.5937 202.134 32.4735 197.73 36.8776C191.551 43.0562 187.338 50.6892 184.694 58.9181C182.05 67.1471 181.374 103.155 181.605 106.559C181.836 109.963 180.937 119.191 193.018 119.438C204.501 119.673 202.953 101.097 203.017 98.2351C203.082 95.3729 203.127 92.5116 203.174 89.6492C203.238 85.8355 204.351 76.5007 206.996 68.0799C209.641 59.6591 213.818 52.1523 219.927 51.9552C222.817 51.8621 226.53 51.6354 230.136 52.0076C233.742 52.3798 249.752 53.8023 252.334 77.1369C252.872 81.9988 253.736 86.9301 254.271 91.7433C255.319 101.174 255.697 110.985 255.894 120.851C256.09 130.718 257.48 255.083 257.412 264.298C257.344 273.513 259.098 302.017 257.203 305.343C255.307 308.668 252.507 311.659 249.664 314.976C241.942 323.983 236.033 333.194 230.817 342.618C225.6 352.042 221.078 361.678 216.158 371.517C215.021 373.79 213.808 378.343 212.389 382.511C210.969 386.678 209.342 390.459 207.363 391.201C206.438 391.548 200.927 388.578 195.269 385.338C189.612 382.097 183.808 378.586 182.233 377.799C176.944 375.155 169.65 371.634 162.706 367.59C155.762 363.547 149.17 358.981 145.377 354.345C144.666 353.476 143.192 348.209 142.864 347.225C141.994 344.614 140.448 341.389 138.571 338.273C136.694 335.156 134.487 332.147 132.393 330.053C131.11 328.77 115.522 321.558 114.803 320.839C115.808 318.829 121.943 311.804 123.179 309.95C126.168 305.467 128.795 300.593 131.189 295.605C133.584 290.617 135.746 285.514 137.838 280.632C140.317 274.848 142.071 268.182 143.388 261.366C144.704 254.551 145.582 247.586 146.215 241.263C147.518 228.227 149.799 215.34 152.026 202.417C154.253 189.494 156.425 176.537 157.523 163.362C158.179 155.484 158.621 147.73 158.832 139.96C159.042 132.191 159.02 124.406 158.779 116.454C158.636 111.73 158.432 107.142 157.209 103.052C155.985 98.9606 153.744 95.3667 149.565 92.581C144.272 89.0522 139.2 90.7795 135.011 94.3086C130.822 97.8378 127.519 103.169 125.692 106.821C119.963 118.28 114.627 131.361 110.719 144.986C106.811 158.611 98.8584 191.173 97.2648 191.266C95.6712 191.359 91.6494 191.263 91.0348 190.481C91.091 190.43 91.1804 190.371 91.2442 190.324C91.308 190.276 91.3461 190.241 91.3489 190.167C91.5528 184.865 93.4162 145.094 93.8618 142.421C96.1307 128.807 99.8132 115.966 104.28 103.366C108.747 90.7655 113.997 78.4066 119.41 65.7764C121.042 61.9684 122.955 58.0821 124.75 54.2064C126.545 50.3307 130.408 39.3198 130.875 37.6106C131.342 35.9014 136.124 21.0616 134.278 15.2036C132.433 9.34561 128.209 4.62831 121.504 4.62831Z" fill="#000000" fill-rule="nonzero" opacity="1" stroke="none"/>
</g>
</svg>
