<?xml version="1.0" standalone="no"?>
<!DOCTYPE svg PUBLIC "-//W3C//DTD SVG 20010904//EN"
 "http://www.w3.org/TR/2001/REC-SVG-20010904/DTD/svg10.dtd">
<svg version="1.0" xmlns="http://www.w3.org/2000/svg"
 width="512.000000pt" height="512.000000pt" viewBox="0 0 512.000000 512.000000"
 preserveAspectRatio="xMidYMid meet">
<metadata>
Created by potrace 1.14, written by Peter Selinger 2001-2017
</metadata>
<g transform="translate(0.000000,512.000000) scale(0.100000,-0.100000)"
fill="#000000" stroke="none">
<path d="M3559 4901 c-16 -17 -29 -40 -29 -54 0 -30 30 -123 65 -202 15 -33
33 -73 40 -90 7 -16 22 -50 33 -75 37 -84 102 -309 117 -405 3 -22 8 -88 11
-147 l5 -108 -43 0 -43 0 -17 118 c-29 206 -117 435 -179 465 -42 20 -79 9
-107 -33 -22 -33 -22 -39 -18 -219 2 -102 6 -196 9 -208 3 -12 8 -50 12 -85 3
-35 8 -70 10 -78 2 -8 6 -37 10 -65 3 -27 8 -61 10 -75 6 -44 17 -115 20 -130
9 -53 17 -100 16 -105 0 -3 13 -44 30 -92 33 -93 75 -177 115 -230 13 -17 24
-34 24 -36 0 -2 -20 -12 -44 -21 -48 -18 -89 -67 -117 -140 -12 -32 -32 -52
-84 -88 -57 -40 -296 -178 -308 -178 -3 0 -15 25 -72 160 -45 108 -93 188
-170 289 l-73 96 3 130 c2 72 6 292 10 490 12 657 12 660 47 752 18 49 74 112
101 114 7 0 21 2 32 4 37 8 83 -15 106 -51 29 -47 38 -90 45 -209 7 -109 21
-145 57 -145 40 0 58 22 66 80 18 139 -10 302 -67 379 -69 94 -287 105 -380
19 -95 -88 -119 -200 -127 -587 -9 -393 -14 -660 -14 -744 l-1 -79 -51 56
c-28 31 -55 53 -60 50 -5 -3 -32 -35 -59 -71 l-50 -66 -1 64 c-1 138 -18 722
-24 829 -12 202 -33 315 -78 410 -38 80 -88 133 -149 160 -69 30 -192 25 -253
-9 -129 -73 -202 -217 -211 -420 -4 -104 7 -131 52 -131 24 0 53 23 55 43 0 7
2 19 3 27 2 8 6 42 10 75 18 165 107 281 222 286 53 2 86 -13 121 -55 71 -86
99 -248 108 -616 3 -140 8 -286 10 -325 2 -38 7 -137 10 -220 4 -82 8 -180 10
-217 l4 -66 -66 -93 c-118 -168 -203 -337 -203 -405 0 -17 4 -18 -71 6 -82 24
-129 35 -246 55 -40 6 -43 9 -43 38 0 38 -38 121 -74 161 -14 16 -26 32 -26
35 0 3 14 26 30 50 17 24 34 60 39 80 16 61 0 247 -49 571 -24 157 -28 188
-35 290 -7 96 -23 255 -31 300 -20 119 -145 93 -203 -42 -11 -27 -18 -48 -16
-48 3 0 0 -12 -6 -27 -22 -60 -31 -255 -17 -385 l7 -56 -40 -4 c-21 -2 -39 -3
-39 -2 0 1 -5 26 -10 55 -12 62 -15 259 -6 338 6 49 30 147 116 470 37 141 37
153 0 184 -24 21 -35 24 -64 17 -40 -9 -59 -21 -123 -81 -185 -173 -310 -414
-344 -669 -6 -41 -12 -86 -14 -99 -8 -45 -18 -226 -17 -301 3 -299 98 -557
253 -690 62 -53 154 -99 224 -112 l62 -12 17 -75 c10 -43 29 -90 42 -109 28
-36 89 -71 131 -74 16 -2 38 -14 52 -31 29 -34 167 -102 240 -118 53 -11 189
-8 222 6 13 5 18 -1 21 -30 l4 -36 -251 4 c-285 5 -245 -5 -445 115 -144 87
-184 105 -210 97 -48 -15 -29 -78 42 -139 56 -48 196 -141 273 -181 l60 -31
273 4 c242 3 272 2 272 -12 0 -9 -8 -16 -17 -17 -10 0 -27 -2 -38 -3 -11 -2
-51 -6 -89 -10 -38 -5 -79 -9 -90 -11 -12 -2 -42 -6 -67 -9 -61 -9 -90 -14
-199 -32 -46 -8 -95 -26 -112 -42 -10 -8 -45 -62 -78 -119 -109 -184 -128
-243 -94 -277 13 -14 19 -14 42 -2 37 20 75 62 108 121 15 28 43 77 63 110 40
65 34 63 201 90 20 3 45 7 55 9 31 6 115 16 175 21 30 3 81 7 113 11 55 5 57
5 57 -19 0 -19 -6 -26 -28 -30 -15 -3 -91 -30 -168 -60 -76 -30 -189 -73 -250
-96 -128 -49 -110 -25 -199 -255 -63 -161 -69 -200 -35 -211 42 -13 68 15 140
156 43 83 80 144 93 151 12 6 123 53 246 105 163 67 227 90 232 81 5 -8 -9
-22 -43 -40 -58 -32 -270 -182 -291 -207 -16 -18 -42 -95 -52 -156 -9 -51 -7
-44 -16 -90 -5 -22 -11 -74 -15 -116 -6 -69 -5 -78 12 -86 11 -5 25 -9 33 -9
19 1 49 45 55 81 2 17 9 55 15 85 6 30 13 66 16 80 23 123 18 116 139 194 61
40 127 82 147 94 l36 22 22 -103 c12 -56 24 -116 27 -132 2 -17 18 -101 35
-187 32 -169 40 -237 32 -267 -3 -10 -42 -45 -86 -77 -178 -126 -261 -207
-309 -304 -28 -56 -32 -76 -32 -145 -1 -67 3 -86 23 -118 33 -54 68 -86 126
-113 89 -41 180 -36 244 14 88 70 77 66 115 43 129 -80 331 -87 481 -16 l57
27 26 -24 c61 -55 82 -63 172 -63 173 1 268 84 278 242 9 148 -74 263 -305
421 -126 86 -127 88 -119 198 4 56 33 284 50 394 20 125 30 170 41 170 16 0
106 -35 175 -69 l55 -26 55 -146 c69 -181 92 -221 129 -217 43 5 40 61 -13
221 -75 226 -68 217 -273 324 -93 48 -113 62 -113 81 0 26 -2 26 77 7 34 -8
75 -17 90 -20 15 -3 68 -15 118 -27 102 -26 88 -13 217 -217 87 -138 145 -181
161 -121 10 40 -16 108 -78 200 -92 137 -136 192 -170 211 -28 16 -236 83
-288 93 -72 13 -107 30 -107 51 0 31 6 34 48 25 20 -5 56 -11 80 -14 35 -5
150 -23 247 -41 61 -10 80 -24 177 -128 137 -147 168 -177 197 -184 26 -7 51
17 51 49 0 16 -159 224 -238 309 -18 20 -39 45 -46 54 -13 18 -138 48 -249 60
-34 4 -64 8 -67 10 -3 2 -41 6 -85 10 -88 7 -95 10 -95 31 0 11 26 14 148 15
289 2 311 5 410 68 316 198 382 248 382 288 0 18 -36 52 -48 45 -1 -1 -16 -9
-33 -18 -18 -9 -96 -58 -175 -110 -220 -145 -208 -141 -426 -138 -269 3 -248
1 -248 24 0 11 1 20 3 21 1 0 25 3 52 5 122 13 229 66 387 192 63 51 97 72
128 77 73 12 172 69 202 116 31 47 43 111 34 169 l-6 38 43 7 c77 12 146 52
216 123 75 77 100 131 130 277 21 100 26 364 10 470 -5 33 -11 74 -14 90 -13
89 -72 247 -170 460 -71 154 -176 309 -302 445 -120 130 -195 159 -254 101z"/>
</g>
</svg>
